<?xml version="1.0" encoding="UTF-8" standalone="no"?>
<!DOCTYPE svg PUBLIC "-//W3C//DTD SVG 1.1//EN" "http://www.w3.org/Graphics/SVG/1.1/DTD/svg11.dtd">
<svg width="100%" height="100%" viewBox="0 0 100 100" version="1.1" xmlns="http://www.w3.org/2000/svg" xmlns:xlink="http://www.w3.org/1999/xlink" xml:space="preserve" xmlns:serif="http://www.serif.com/" style="fill-rule:evenodd;clip-rule:evenodd;stroke-miterlimit:1.5;">
    <g transform="matrix(1,0,0,1,-139.212,-394.012)">
        <g id="Application" transform="matrix(1,0,0,1,-1000.12,394.012)">
            <rect x="1139.33" y="0" width="100" height="100" style="fill:none;"/>
            <clipPath id="_clip1">
                <rect x="1139.33" y="0" width="100" height="100"/>
            </clipPath>
            <g clip-path="url(#_clip1)">
                <g transform="matrix(1.49391,0,0,1.56362,-570.409,-12.0727)">
                    <g transform="matrix(0.965926,-0.258819,0.258819,0.965926,24.8,276.269)">
                        <g transform="matrix(0.809372,0,0,0.80817,1021.53,-312.709)">
                            <g transform="matrix(0.798861,0.214373,-0.204512,0.764383,160.005,424.545)">
                                <path d="M-0.139,31.031L19.021,22.526L14.329,42.958C13.694,36.359 6.46,30.396 -0.139,31.031Z"/>
                                <path d="M6.803,58.831C4.592,50.195 5.769,41.437 9.48,34.101" style="fill:none;stroke:black;stroke-width:8.33px;"/>
                            </g>
                        </g>
                        <g transform="matrix(0.809372,0,0,0.80817,1021.53,-312.709)">
                            <path d="M170.593,445.842C173.625,444.66 176.922,444.012 180.37,444.012C195.25,444.012 207.331,456.093 207.331,470.973C207.331,485.854 195.25,497.935 180.37,497.935C165.489,497.935 153.408,485.854 153.408,470.973" style="fill:none;stroke:black;stroke-width:6.82px;"/>
                        </g>
                    </g>
                    <g transform="matrix(2.34126,0,0,2.34126,778.203,-1041.8)">
                        <circle cx="167.391" cy="461.929" r="2.156"/>
                    </g>
                    <g transform="matrix(1.3224,0,0,1.3224,948.75,-571.158)">
                        <path d="M167.391,461.929L167.391,449.492" style="fill:none;stroke:black;stroke-width:3.09px;"/>
                    </g>
                    <g transform="matrix(6.38502e-17,0.327921,-1.04275,2.00794e-17,1651.9,-15.1926)">
                        <path d="M167.391,461.929L167.391,449.492" style="fill:none;stroke:black;stroke-width:5.39px;"/>
                    </g>
                    <g>
                        <g transform="matrix(8.51094e-17,0.686126,-1.38994,4.20131e-17,1832.37,-75.1973)">
                            <path d="M167.391,461.929L167.391,449.492" style="fill:none;stroke:black;stroke-width:4.29px;"/>
                        </g>
                        <g transform="matrix(9.42241e-17,0.686126,-1.5388,4.20131e-17,1899.28,-83.6347)">
                            <path d="M167.391,461.929L167.391,449.492" style="fill:none;stroke:black;stroke-width:3.95px;"/>
                        </g>
                        <g transform="matrix(9.42241e-17,0.686126,-1.5388,4.20131e-17,1899.28,-66.7599)">
                            <path d="M167.391,461.929L167.391,449.492" style="fill:none;stroke:black;stroke-width:3.95px;"/>
                        </g>
                        <g transform="matrix(1.15935e-16,0.686126,-1.89336,4.20131e-17,2058.66,-92.0721)">
                            <path d="M167.391,461.929L167.391,449.492" style="fill:none;stroke:black;stroke-width:3.31px;"/>
                        </g>
                        <g transform="matrix(1.15935e-16,0.686126,-1.89336,4.20131e-17,2058.66,-58.3225)">
                            <path d="M167.391,461.929L167.391,449.492" style="fill:none;stroke:black;stroke-width:3.31px;"/>
                        </g>
                    </g>
                </g>
            </g>
        </g>
    </g>
</svg>
