<?xml version="1.0" encoding="UTF-8" standalone="no"?>
<!DOCTYPE svg PUBLIC "-//W3C//DTD SVG 1.1//EN" "http://www.w3.org/Graphics/SVG/1.1/DTD/svg11.dtd">
<svg width="100%" height="100%" viewBox="0 0 100 100" version="1.1" xmlns="http://www.w3.org/2000/svg" xmlns:xlink="http://www.w3.org/1999/xlink" xml:space="preserve" xmlns:serif="http://www.serif.com/" style="fill-rule:evenodd;clip-rule:evenodd;stroke-linejoin:round;stroke-miterlimit:2;">
    <g transform="matrix(1,0,0,1,-2.1548,-394.012)">
        <g id="Resume" transform="matrix(1,0,0,1,-829.524,394.012)">
            <rect x="831.678" y="0" width="100" height="100" style="fill:none;"/>
            <g transform="matrix(1,0,0,1,814.965,-406.205)">
                <path d="M40.663,489.356C31.838,488.694 24.879,481.309 24.879,472.312L24.879,427.322C24.879,417.878 32.546,410.211 41.99,410.211L76.212,410.211C84.18,410.211 90.884,415.67 92.763,423.054L91.436,422.986L83.799,422.986C82.32,420.326 79.472,418.544 76.212,418.544C76.212,418.544 41.99,418.544 41.99,418.544C37.145,418.544 33.212,422.477 33.212,427.322C33.212,427.322 33.212,472.312 33.212,472.312C33.212,476.509 36.163,480.021 40.103,480.875L40.103,485.088C40.103,486.563 40.29,487.995 40.663,489.356Z"/>
            </g>
            <g transform="matrix(1,0,0,1,830.19,-393.429)">
                <path d="M77.539,410.278C86.364,410.94 93.323,418.325 93.323,427.322L93.323,472.312C93.323,481.756 85.656,489.423 76.212,489.423L41.99,489.423C34.021,489.423 27.317,483.964 25.438,476.581L26.765,476.648L34.402,476.648C35.882,479.308 38.73,481.09 41.99,481.09C41.99,481.09 76.212,481.09 76.212,481.09C81.056,481.09 84.989,477.157 84.989,472.312L84.989,427.322C84.989,423.126 82.038,419.613 78.098,418.76L78.098,414.546C78.098,413.071 77.911,411.639 77.539,410.278Z"/>
            </g>
            <g transform="matrix(1,0,0,1,830.19,-393.429)">
                <path d="M68.575,410.211C69.344,411.476 69.765,412.962 69.765,414.546L69.765,418.544L41.99,418.544C37.145,418.544 33.212,422.477 33.212,427.322L33.212,468.314L26.765,468.314C26.117,468.314 25.485,468.244 24.879,468.099L24.879,427.322C24.879,417.878 32.546,410.211 41.99,410.211L68.575,410.211Z"/>
            </g>
            <g transform="matrix(1,0,0,1,830.19,-393.429)">
                <path d="M24.879,468.099C25.485,468.244 26.117,468.314 26.765,468.314L33.212,468.314L33.212,472.312C33.212,473.896 33.633,475.383 34.402,476.648L26.765,476.648L25.438,476.581C25.066,475.219 24.879,473.787 24.879,472.312L24.879,468.099Z"/>
            </g>
            <g transform="matrix(1,0,0,1,830.19,-393.429)">
                <path d="M77.539,410.278C77.911,411.639 78.098,413.071 78.098,414.546L78.098,418.76C77.492,418.615 76.86,418.544 76.212,418.544L69.765,418.544L69.765,414.546C69.589,412.8 69.663,413.024 69.075,411.131L68.575,410.211L76.212,410.211L77.539,410.278Z"/>
            </g>
        </g>
    </g>
</svg>
