<?xml version="1.0" encoding="UTF-8" standalone="no"?>
<!DOCTYPE svg PUBLIC "-//W3C//DTD SVG 1.1//EN" "http://www.w3.org/Graphics/SVG/1.1/DTD/svg11.dtd">
<svg width="100%" height="100%" viewBox="0 0 100 100" version="1.1" xmlns="http://www.w3.org/2000/svg" xmlns:xlink="http://www.w3.org/1999/xlink" xml:space="preserve" xmlns:serif="http://www.serif.com/" style="fill-rule:evenodd;clip-rule:evenodd;stroke-linecap:round;stroke-miterlimit:1.5;">
    <g transform="matrix(1,0,0,1,-272.006,-263.428)">
        <g id="Phone" transform="matrix(1,0,0,1,-559.672,263.428)">
            <rect x="831.678" y="0" width="100" height="100" style="fill:none;"/>
            <g transform="matrix(1.20062,-1.33295e-16,1.33295e-16,1.20062,491.103,-322.463)">
                <path d="M309.626,327.247C292.604,310.224 290.673,300.557 290.673,291.208C290.673,281.859 294.743,281.468 299.238,276.974C303.732,272.48 306.918,276.974 306.918,276.974L313.82,286.165C313.82,286.165 318.066,290.94 313.82,295.185L307.555,299.43C307.555,299.43 303.967,304.748 317.655,318.435C331.342,332.122 302.805,303.585 316.492,317.272C330.179,330.96 335.497,327.372 335.497,327.372L339.742,321.107C343.987,316.861 348.762,321.107 348.762,321.107L357.953,328.009C357.953,328.009 362.447,331.195 357.953,335.689C353.459,340.184 353.068,344.254 343.719,344.254C334.37,344.254 324.703,342.323 307.68,325.301" style="fill:none;stroke:black;stroke-width:6.94px;"/>
            </g>
        </g>
    </g>
</svg>
