<?xml version="1.0" encoding="UTF-8" standalone="no"?>
<!DOCTYPE svg PUBLIC "-//W3C//DTD SVG 1.1//EN" "http://www.w3.org/Graphics/SVG/1.1/DTD/svg11.dtd">
<svg width="100%" height="100%" viewBox="0 0 640 640" version="1.1" xmlns="http://www.w3.org/2000/svg" xmlns:xlink="http://www.w3.org/1999/xlink" xml:space="preserve" xmlns:serif="http://www.serif.com/" style="fill-rule:evenodd;clip-rule:evenodd;stroke-linejoin:round;stroke-miterlimit:2;">
    <g transform="matrix(1,0,0,1,-848,0)">
        <g id="Artboard2" transform="matrix(1,0,0,1,-0.333333,0)">
            <rect x="848.333" y="0" width="640" height="640" style="fill:none;"/>
            <g transform="matrix(1.87533,0,0,1.87533,-3735.78,-133.459)">
                <g transform="matrix(0.972782,0,0,0.972782,842.844,8.80033)">
                    <circle cx="1802.55" cy="225.474" r="14.73" style="fill:rgb(114,255,170);"/>
                </g>
                <g transform="matrix(0.69108,0,0,0.69108,-258.694,132.807)">
                    <g transform="matrix(50,0,0,50,4043.53,207.889)">
                        <rect x="0.079" y="-0.754" width="0.196" height="0.754" style="fill-rule:nonzero;"/>
                    </g>
                    <g transform="matrix(50,0,0,50,4069.23,207.889)">
                        <path d="M0.275,-0.408L0.34,-0.408C0.412,-0.408 0.448,-0.439 0.448,-0.502C0.448,-0.565 0.412,-0.596 0.34,-0.596L0.275,-0.596L0.275,-0.408ZM0.275,-0L0.079,-0L0.079,-0.754L0.391,-0.754C0.476,-0.754 0.541,-0.732 0.586,-0.688C0.631,-0.644 0.653,-0.582 0.653,-0.502C0.653,-0.422 0.631,-0.36 0.586,-0.316C0.541,-0.272 0.476,-0.25 0.391,-0.25L0.275,-0.25L0.275,-0Z" style="fill-rule:nonzero;"/>
                    </g>
                    <g transform="matrix(50,0,0,50,4111.13,207.889)">
                        <path d="M0.508,-0.588L0.275,-0.588L0.275,-0.462L0.495,-0.462L0.495,-0.296L0.275,-0.296L0.275,-0.166L0.508,-0.166L0.508,-0L0.079,-0L0.079,-0.754L0.508,-0.754L0.508,-0.588Z" style="fill-rule:nonzero;"/>
                    </g>
                    <g transform="matrix(50,0,0,50,4147.63,207.889)">
                        <path d="M0.275,-0.754L0.275,-0.166L0.51,-0.166L0.51,-0L0.079,-0L0.079,-0.754L0.275,-0.754Z" style="fill-rule:nonzero;"/>
                    </g>
                    <g transform="matrix(50,0,0,50,4182.23,207.889)">
                        <rect x="0.079" y="-0.754" width="0.196" height="0.754" style="fill-rule:nonzero;"/>
                    </g>
                    <g transform="matrix(50,0,0,50,4207.93,207.889)">
                        <path d="M0.079,-0L0.079,-0.754L0.275,-0.754L0.637,-0.293L0.637,-0.754L0.832,-0.754L0.832,-0L0.637,-0L0.275,-0.461L0.275,-0L0.079,-0Z" style="fill-rule:nonzero;"/>
                    </g>
                    <g transform="matrix(50,0,0,50,4261.48,207.889)">
                        <path d="M0.508,-0.588L0.275,-0.588L0.275,-0.462L0.495,-0.462L0.495,-0.296L0.275,-0.296L0.275,-0.166L0.508,-0.166L0.508,-0L0.079,-0L0.079,-0.754L0.508,-0.754L0.508,-0.588Z" style="fill-rule:nonzero;"/>
                    </g>
                </g>
                <g transform="matrix(0.0808273,0,0,0.116782,2556.06,209.622)">
                    <g transform="matrix(463.952,0,0,321.112,0,278.725)">
                        <path d="M0.303,-0.328C0.412,-0.341 0.484,-0.431 0.484,-0.539C0.484,-0.611 0.448,-0.682 0.385,-0.719C0.325,-0.753 0.253,-0.754 0.186,-0.754L0.072,-0.754L0.072,-0L0.166,-0L0.166,-0.319L0.205,-0.319L0.427,-0L0.541,-0L0.303,-0.328ZM0.166,-0.67L0.191,-0.67C0.284,-0.67 0.396,-0.653 0.396,-0.535C0.396,-0.415 0.292,-0.397 0.196,-0.397L0.166,-0.397L0.166,-0.67Z" style="fill-rule:nonzero;"/>
                    </g>
                    <g transform="matrix(463.952,0,0,321.112,744.644,278.725)">
                        <path d="M0.209,-0.754L0.209,-0.275C0.209,-0.198 0.211,-0.072 0.103,-0.072C0.076,-0.072 0.049,-0.081 0.028,-0.097L-0.019,-0.017C0.018,0.005 0.055,0.016 0.099,0.016C0.275,0.016 0.303,-0.13 0.303,-0.275L0.303,-0.754L0.209,-0.754Z" style="fill-rule:nonzero;"/>
                    </g>
                    <g transform="matrix(463.952,0,0,321.112,966.877,278.725)">
                        <path d="M0.072,-0L0.477,-0L0.477,-0.086L0.166,-0.086L0.166,-0.371L0.468,-0.371L0.468,-0.457L0.166,-0.457L0.166,-0.668L0.477,-0.668L0.477,-0.754L0.072,-0.754L0.072,-0Z" style="fill-rule:nonzero;"/>
                    </g>
                    <g transform="matrix(463.952,0,0,321.112,1262.88,278.725)">
                        <path d="M0.621,-0.719C0.564,-0.754 0.497,-0.77 0.431,-0.77C0.209,-0.77 0.03,-0.596 0.03,-0.373C0.03,-0.155 0.208,0.016 0.423,0.016C0.489,0.016 0.563,-0.003 0.621,-0.037L0.621,-0.148C0.565,-0.098 0.494,-0.07 0.42,-0.07C0.252,-0.07 0.124,-0.211 0.124,-0.376C0.124,-0.543 0.253,-0.684 0.422,-0.684C0.493,-0.684 0.567,-0.658 0.621,-0.61L0.621,-0.719Z" style="fill-rule:nonzero;"/>
                    </g>
                    <g transform="matrix(463.952,0,0,321.112,1623.83,278.725)">
                        <path d="M0.275,-0.668L0.454,-0.668L0.454,-0.754L0.002,-0.754L0.002,-0.668L0.181,-0.668L0.181,-0L0.275,-0L0.275,-0.668Z" style="fill-rule:nonzero;"/>
                    </g>
                </g>
                <g transform="matrix(91.9732,0,0,91.9732,2506.95,276.476)">
                    <path d="M0.166,-0.316L0.22,-0.316C0.363,-0.316 0.484,-0.377 0.484,-0.536C0.484,-0.674 0.412,-0.754 0.18,-0.754L0.072,-0.754L0.072,-0L0.166,-0L0.166,-0.316ZM0.166,-0.67L0.191,-0.67C0.284,-0.67 0.396,-0.656 0.396,-0.538C0.396,-0.418 0.292,-0.4 0.196,-0.4L0.166,-0.4L0.166,-0.67Z" style="fill-rule:nonzero;"/>
                </g>
                <g transform="matrix(1,0,0,1,791.701,134.819)">
                    <path d="M1804.63,78.479C1812.73,78.479 1819.3,85.128 1819.3,93.319C1819.3,101.509 1812.73,108.159 1804.63,108.159C1796.54,108.159 1789.97,101.509 1789.97,93.319C1789.97,85.128 1796.54,78.479 1804.63,78.479ZM1793.42,94.986C1794.13,99.989 1798.03,103.963 1802.97,104.702L1802.97,99.552C1800.78,98.953 1799.05,97.204 1798.47,94.986L1793.42,94.986ZM1810.8,94.986C1810.22,97.204 1808.49,98.953 1806.3,99.552L1806.3,104.702C1811.24,103.962 1815.13,99.989 1815.85,94.986L1810.8,94.986ZM1804.63,90.196C1806.33,90.196 1807.68,91.606 1807.68,93.319C1807.68,95.032 1806.33,96.442 1804.63,96.442C1802.94,96.442 1801.59,95.032 1801.59,93.319C1801.59,91.606 1802.94,90.196 1804.63,90.196ZM1806.3,81.936L1806.3,87.086C1808.49,87.684 1810.22,89.434 1810.8,91.652L1815.85,91.652C1815.13,86.649 1811.24,82.675 1806.3,81.936ZM1802.97,87.086L1802.97,81.936C1798.03,82.675 1794.13,86.649 1793.42,91.652L1798.47,91.652C1799.05,89.434 1800.78,87.685 1802.97,87.086Z"/>
                </g>
            </g>
        </g>
    </g>
</svg>
